<svg xmlns="http://www.w3.org/2000/svg" width="366" height="180" fill="none" viewBox="0 0 366 180">
  <path fill="#111518" d="M0 160a5 5 0 0 1 10 0v20H0z"></path>
  <path fill="#fff" d="M25.429 113a5 5 0 0 1 10 0v67h-10z"></path>
  <path fill="#111518" d="M50.857 145a5 5 0 0 1 10 0v35h-10z"></path>
  <path fill="#fff" d="M76.286 155a5 5 0 0 1 10 0v25h-10z"></path>
  <path fill="#111518" d="M101.714 125a5 5 0 0 1 10 0v55h-10z"></path>
  <path fill="#fff" d="M127.143 105a5 5 0 0 1 10 0v75h-10z"></path>
  <path fill="#111518" d="M152.571 85a5 5 0 1 1 10 0v95h-10z"></path>
  <path fill="#fff" d="M178 85a5 5 0 0 1 10 0v95h-10z"></path>
  <path fill="#111518" d="M203.429 45a5 5 0 0 1 10 0v135h-10z"></path>
  <path fill="#fff" d="M228.857 55a5 5 0 1 1 10 0v125h-10z"></path>
  <path fill="#111518" d="M254.286 65a5 5 0 1 1 10 0v115h-10z"></path>
  <path fill="#fff" d="M279.714 55a5 5 0 0 1 10 0v125h-10z"></path>
  <path fill="#111518" d="M305.143 35a5 5 0 0 1 10 0v145h-10z"></path>
  <path fill="#fff" d="M330.571 5a5 5 0 1 1 10 0v175h-10z"></path>
  <path fill="#111518" d="M356 15a5 5 0 0 1 10 0v165h-10z"></path>
</svg>