<svg xmlns="http://www.w3.org/2000/svg" style="width:5rem;height:5rem;margin:10px" viewBox="0 0 155 27">
  <path d="M23.35 20.748h8.064L11.439.773H3.376L23.35 20.748ZM15.582.773l19.255 19.255V.773h-5.21v6.079l-6.08-6.08h-7.965ZM0 1.44v19.306h5.21v-6.079l6.08 6.08h8.016L0 1.44Zm47.412 16.303h4.668v2.751h-8.233V5.863h3.565v11.881Zm11.037 2.918c-1.14 0-2.167-.243-3.085-.73a5.43 5.43 0 0 1-2.146-2.084c-.514-.903-.772-1.959-.772-3.168 0-1.195.264-2.244.792-3.147a5.355 5.355 0 0 1 2.168-2.105c.917-.487 1.945-.73 3.085-.73s2.168.243 3.085.73a5.355 5.355 0 0 1 2.167 2.105c.529.903.792 1.952.792 3.147 0 1.195-.27 2.251-.812 3.168a5.36 5.36 0 0 1-2.189 2.085c-.917.486-1.945.73-3.085.73Zm0-3.085c.681 0 1.258-.25 1.73-.75.487-.5.73-1.216.73-2.147 0-.93-.236-1.647-.709-2.147a2.224 2.224 0 0 0-1.71-.75c-.694 0-1.27.25-1.729.75-.459.487-.688 1.202-.688 2.147 0 .931.222 1.647.667 2.147.459.5 1.028.75 1.71.75Zm11.77-8.879c.82 0 1.536.167 2.148.5.625.334 1.104.772 1.438 1.313V8.865h3.564v11.61c0 1.07-.215 2.035-.646 2.897-.417.875-1.063 1.57-1.938 2.084-.862.514-1.939.771-3.231.771-1.723 0-3.12-.41-4.19-1.23-1.07-.805-1.68-1.903-1.834-3.293h3.523c.11.445.375.792.792 1.042.417.264.93.396 1.542.396.737 0 1.32-.215 1.751-.646.445-.417.667-1.09.667-2.021v-1.647a4.041 4.041 0 0 1-1.438 1.334c-.612.333-1.327.5-2.147.5a4.815 4.815 0 0 1-2.605-.73c-.779-.5-1.397-1.201-1.855-2.105-.445-.917-.667-1.973-.667-3.168s.222-2.244.667-3.147c.458-.903 1.076-1.598 1.855-2.084a4.816 4.816 0 0 1 2.605-.73Zm3.586 5.982c0-.89-.25-1.59-.75-2.105a2.371 2.371 0 0 0-1.793-.771c-.709 0-1.313.257-1.813.77-.487.501-.73 1.196-.73 2.085s.243 1.598.73 2.126c.5.514 1.104.771 1.813.771a2.37 2.37 0 0 0 1.793-.77c.5-.515.75-1.217.75-2.106Zm10.812 5.982c-1.14 0-2.168-.243-3.085-.73a5.43 5.43 0 0 1-2.147-2.084c-.514-.903-.771-1.959-.771-3.168 0-1.195.264-2.244.792-3.147a5.355 5.355 0 0 1 2.168-2.105c.917-.487 1.945-.73 3.084-.73 1.14 0 2.168.243 3.085.73a5.355 5.355 0 0 1 2.168 2.105c.528.903.792 1.952.792 3.147 0 1.195-.271 2.251-.813 3.168a5.36 5.36 0 0 1-2.189 2.085c-.917.486-1.945.73-3.084.73Zm0-3.085c.68 0 1.257-.25 1.73-.75.486-.5.73-1.216.73-2.147 0-.93-.237-1.647-.71-2.147a2.224 2.224 0 0 0-1.709-.75c-.694 0-1.271.25-1.73.75-.458.487-.688 1.202-.688 2.147 0 .931.223 1.647.667 2.147.459.5 1.029.75 1.71.75Zm9.144-9.921c-.625 0-1.14-.18-1.542-.542a1.838 1.838 0 0 1-.584-1.376c0-.556.195-1.014.584-1.375.403-.376.917-.563 1.542-.563.611 0 1.112.187 1.5.563.404.36.605.82.605 1.375 0 .542-.201 1-.604 1.376-.39.361-.89.542-1.501.542Zm1.772 1.209v11.63h-3.565V8.865h3.565Zm5.52 1.646c.349-.541.828-.98 1.44-1.313.61-.333 1.326-.5 2.146-.5.96 0 1.828.243 2.605.73.779.486 1.39 1.18 1.835 2.084.459.903.688 1.952.688 3.147s-.23 2.251-.688 3.168c-.445.904-1.056 1.605-1.835 2.106a4.812 4.812 0 0 1-2.605.73c-.806 0-1.522-.168-2.147-.501-.611-.334-1.09-.764-1.438-1.292v7.17H97.49V8.865h3.564v1.646Zm5.087 4.148c0-.89-.25-1.584-.75-2.084-.486-.514-1.092-.771-1.814-.771-.709 0-1.313.257-1.813.77-.486.515-.73 1.217-.73 2.106 0 .89.244 1.591.73 2.105.5.514 1.104.771 1.813.771s1.313-.257 1.814-.77c.5-.529.75-1.237.75-2.127Zm9.602 6.003c-1.014 0-1.917-.174-2.709-.521-.792-.347-1.418-.82-1.876-1.417a3.806 3.806 0 0 1-.771-2.043h3.523c.041.403.229.73.563.98.332.25.743.375 1.229.375.445 0 .785-.084 1.022-.25.25-.18.375-.41.375-.688 0-.334-.175-.577-.522-.73-.348-.166-.91-.347-1.688-.542a17.173 17.173 0 0 1-2.085-.604 3.747 3.747 0 0 1-1.438-1.021c-.402-.473-.604-1.105-.604-1.897a3.2 3.2 0 0 1 .542-1.813c.375-.556.917-.994 1.625-1.314.724-.32 1.578-.479 2.564-.479 1.46 0 2.606.361 3.44 1.084.848.722 1.334 1.681 1.459 2.876h-3.293a1.41 1.41 0 0 0-.543-.959c-.291-.236-.68-.354-1.167-.354-.416 0-.736.083-.959.25a.74.74 0 0 0-.333.646c0 .334.174.584.52.75.362.168.919.334 1.669.501.861.222 1.563.445 2.105.667a3.422 3.422 0 0 1 1.417 1.042c.417.473.632 1.112.646 1.918 0 .68-.194 1.292-.584 1.834-.375.528-.924.945-1.646 1.25-.709.306-1.536.46-2.48.46Zm17.75-11.797v11.63h-3.563v-1.584c-.362.514-.855.931-1.48 1.25-.611.307-1.292.46-2.042.46-.89 0-1.675-.195-2.356-.584-.681-.403-1.208-.98-1.584-1.73-.375-.75-.562-1.633-.562-2.647V8.865h3.543v6.315c0 .778.201 1.383.604 1.814.403.43.945.646 1.625.646.695 0 1.244-.216 1.647-.646.404-.431.605-1.036.605-1.814V8.865h3.564Zm16.776-.125c1.445 0 2.592.437 3.439 1.313.862.875 1.293 2.091 1.293 3.647v6.795h-3.544V14.18c0-.75-.2-1.327-.604-1.73-.39-.417-.931-.625-1.626-.625s-1.243.208-1.647.625c-.388.403-.583.98-.583 1.73v6.315h-3.544V14.18c0-.75-.2-1.327-.604-1.73-.39-.417-.93-.625-1.626-.625s-1.243.208-1.647.625c-.388.403-.583.98-.583 1.73v6.315h-3.564V8.865h3.564v1.459a3.72 3.72 0 0 1 1.417-1.147c.584-.291 1.244-.437 1.98-.437.876 0 1.654.187 2.335.563.695.375 1.236.91 1.626 1.604.403-.639.952-1.16 1.647-1.563a4.45 4.45 0 0 1 2.27-.604Z"></path>
</svg>